PathFileType        4      (X/Y/Z)      C:\Users\pc\Desktop\IMUTRC\Sujet_01\Sujet_01_velo_100.trc         
DataRate	CameraRate	NumFrames	NumMarkers	Units	OrigDataRate	OrigDataStartFrame	OrigNumFrames
60.0	60.0	4	64	mm	60.0	871	995
Frame#	Time	pHipOrigin			pRightASI			pLeftASI			pRightCSI			pLeftCSI			pRightIschialTub			pLeftIschialTub			pSacrum			pL5SpinalProcess			pL3SpinalProcess			pT12SpinalProcess			pIJ			pT4SpinalProcess			pT8SpinalProcess			pPX			pC7SpinalProcess			pTopOfHead			pRightAuricularis			pLeftAuricularis			pBackOfHead			pRightAcromion			pLeftAcromion			pRightArmLatEpicondyle			pRightArmMedEpicondyle			pLeftArmLatEpicondyle			pLeftArmMedEpicondyle			pRightUlnarStyloid			pRightRadialStyloid			pRightOlecranon			pLeftUlnarStyloid			pLeftRadialStyloid			pLeftOlecranon			pRightTopOfHand			pRightPinky			pRightBallHand			pLeftTopOfHand			pLeftPinky			pLeftBallHand			pRightGreaterTrochanter			pRightKneeLatEpicondyle			pRightKneeMedEpicondyle			pRightPatella			pLeftGreaterTrochanter			pLeftKneeLatEpicondyle			pLeftKneeMedEpicondyle			pLeftPatella			pRightTibialTub			pRightLatMalleolus			pRightMedMalleolus			pLeftTibialTub			pLeftLatMalleolus			pLeftMedMalleolus			pRightHeelFoot			pRightFirstMetatarsal			pRightFifthMetatarsal			pRightPivotFoot			pRightHeelCenter			pRightToe			pLeftHeelFoot			pLeftFirstMetatarsal			pLeftFifthMetatarsal			pLeftPivotFoot			pLeftHeelCenter			pLeftToe			
		X1	Y1	Z1	X2	Y2	Z2	X3	Y3	Z3	X4	Y4	Z4	X5	Y5	Z5	X6	Y6	Z6	X7	Y7	Z7	X8	Y8	Z8	X9	Y9	Z9	X10	Y10	Z10	X11	Y11	Z11	X12	Y12	Z12	X13	Y13	Z13	X14	Y14	Z14	X15	Y15	Z15	X16	Y16	Z16	X17	Y17	Z17	X18	Y18	Z18	X19	Y19	Z19	X20	Y20	Z20	X21	Y21	Z21	X22	Y22	Z22	X23	Y23	Z23	X24	Y24	Z24	X25	Y25	Z25	X26	Y26	Z26	X27	Y27	Z27	X28	Y28	Z28	X29	Y29	Z29	X30	Y30	Z30	X31	Y31	Z31	X32	Y32	Z32	X33	Y33	Z33	X34	Y34	Z34	X35	Y35	Z35	X36	Y36	Z36	X37	Y37	Z37	X38	Y38	Z38	X39	Y39	Z39	X40	Y40	Z40	X41	Y41	Z41	X42	Y42	Z42	X43	Y43	Z43	X44	Y44	Z44	X45	Y45	Z45	X46	Y46	Z46	X47	Y47	Z47	X48	Y48	Z48	X49	Y49	Z49	X50	Y50	Z50	X51	Y51	Z51	X52	Y52	Z52	X53	Y53	Z53	X54	Y54	Z54	X55	Y55	Z55	X56	Y56	Z56	X57	Y57	Z57	X58	Y58	Z58	X59	Y59	Z59	X60	Y60	Z60	X61	Y61	Z61	X62	Y62	Z62	X63	Y63	Z63	X64	Y64	Z64	
871	14.5	0.0	1250.01138	7.654112177073829E-14	56.570979999999984	1323.58328	137.96211000000008	83.40518000000002	1343.78297	-109.1138699999999	24.523969999999984	1390.81685	117.64395000000009	46.61923000000001	1407.40311	-85.53768999999991	-61.42839000000001	1199.66025	40.932510000000065	-50.41036999999999	1207.95338	-60.658309999999936	-58.88121	1276.01626	-4.265039999999929	-13.387480000000002	1366.05594	7.463820000000082	44.13129	1456.80646	19.725800000000095	101.65006	1536.5982	30.743810000000106	336.58254	1551.88125	60.658310000000135	238.72362	1651.33956	52.06900000000013	169.89066	1605.9643	41.99877000000012	245.18041	1485.95088	47.09312000000012	281.13705	1678.70688	57.400300000000136	523.59258	1744.69649	64.27174000000018	437.52176	1708.44367	131.56456000000017	441.54985	1694.99695	0.5331300000001579	416.01886	1747.53985	60.599070000000154	245.95048999999997	1633.6278	232.20759000000015	309.0375	1618.81865	-113.73432999999986	302.3437599999999	1419.60586	319.75933000000015	282.3810199999999	1392.00159	277.9975100000001	408.19962	1400.94632	-118.76943999999986	369.22192	1376.6593	-90.51356999999987	401.86129999999997	1258.60069	403.9345900000001	434.02678999999995	1264.05046	374.49398000000014	275.27261999999996	1407.10693	313.5987200000002	556.88357	1261.56253	-124.10073999999986	565.11746	1269.08558	-81.56883999999985	383.49795	1388.80281	-126.82562999999988	567.54616	1211.86299	450.02068000000014	487.63593999999995	1222.58482	455.7666400000001	437.04785999999996	1238.16406	413.1755000000001	714.51224	1237.92711	-38.029919999999834	662.44324	1243.19917	-99.57677999999984	595.03196	1247.81963	-106.56669999999986	-12.854350000000018	1221.81475	147.02532000000008	212.42255999999998	966.50487	207.15050000000008	237.89430999999996	967.21571	144.9520400000001	250.03781999999998	994.0499	184.16669000000007	27.663510000000016	1248.35276	-147.3214999999999	341.67689	1104.76316	-166.0402799999999	350.32543	1102.45294	-99.39906999999988	359.44788	1138.76499	-131.0314299999999	254.42132999999998	920.89266	186.23997000000008	44.901369999999986	610.31501	123.03448000000004	69.42532999999999	610.7889	68.12213000000006	391.37642	1076.0334	-147.9138699999999	321.06254	703.67194	-175.6366099999999	341.26223	700.5324	-119.06562999999991	-34.1203	520.63075	25.70870000000003	122.32364	424.19351	57.63724000000004	76.11906999999998	413.1755	131.97921000000002	118.29554999999999	404.7639	103.19021000000004	-3.198780000000005	494.50739	40.99175000000003	174.03721999999996	366.37856	132.09769000000006	276.63507	573.1144	-106.27051999999995	454.70038	576.49089	-50.88426999999991	459.85396	547.52418	-134.05249999999992	482.12694	560.85242	-89.26959999999991	319.40391	568.37547	-101.94623999999993	555.52112	559.78616	-84.3529599999999	
872	14.517	0.0	1250.01138	7.654112177073829E-14	53.78685999999998	1325.47885	138.0805900000001	85.24151000000002	1342.59824	-108.6992199999999	22.036029999999986	1392.29777	116.28151000000008	47.863200000000006	1406.39609	-86.60394999999991	-62.07999000000001	1200.01567	40.399380000000065	-49.166399999999996	1207.06483	-61.01372999999994	-58.82197	1275.83855	-5.686719999999929	-13.80213	1366.11518	5.982900000000082	43.36121	1457.04341	18.600300000000093	100.64304	1537.01286	30.210680000000103	335.16086	1552.71057	62.257700000000135	237.18347	1651.99116	53.31297000000013	168.52821	1606.49743	42.35419000000012	244.05492	1486.66172	47.44854000000012	279.47842	1679.41772	59.23663000000013	521.75624	1745.82198	66.52274000000017	435.80389	1709.33222	133.87479000000016	439.71351	1696.12245	2.784120000000158	414.12329	1748.48763	63.027780000000156	242.63323999999997	1634.63483	233.15538000000015	308.50437	1620.53651	-112.37188999999985	301.21826999999996	1420.43517	319.1077300000002	281.84788999999995	1393.00861	276.93125000000015	408.85123	1402.84189	-118.35478999999985	369.75505	1378.14022	-90.69127999999988	401.97977999999995	1260.08161	402.80909000000014	434.08602999999994	1265.76833	373.30925000000013	274.44330999999994	1407.93624	312.76941000000016	557.35746	1263.28039	-125.04852999999986	565.70982	1270.56649	-82.45738999999986	384.03108	1390.57991	-126.70714999999987	567.6054	1213.10696	448.59901000000013	487.7544199999999	1224.0065	454.46343000000013	437.16633999999993	1239.70421	411.9907700000001	715.04537	1238.81566	-39.15540999999984	662.91714	1244.44314	-100.64303999999984	595.50585	1249.35978	-107.57371999999985	-13.269010000000018	1224.83581	147.55845000000008	229.12728999999996	988.00777	216.45065000000008	254.71750999999998	988.48166	154.31142000000008	264.78774	1017.3299	192.5782900000001	27.01190000000002	1243.49535	-147.20302999999993	328.17093	1074.67096	-166.8695899999999	338.18193	1074.01935	-100.40608999999989	349.43689	1108.3766	-133.46012999999988	267.98652	941.50701	194.0592000000001	43.24273999999998	642.89515	125.58166000000004	67.52975999999998	643.30981	70.55083000000006	379.23291	1048.13295	-148.9208899999999	320.41094	673.40202	-170.18683999999993	341.73612	671.68416	-113.97127999999991	-38.26686	555.40265	27.90045000000003	116.10379999999999	455.29274	58.40732000000004	70.07692999999999	444.80786	132.92700000000002	111.89799999999998	435.62618	103.84181000000004	-7.878470000000005	528.50922	42.88732000000004	166.98805999999996	395.64146	132.21616000000006	276.51659	543.31838	-99.99142999999994	454.46343	547.16876	-44.42746999999991	459.73549	517.66892	-127.41798999999992	481.94923	531.29334	-82.69433999999991	319.28544	538.63868	-95.60791999999992	555.40265	530.28632	-77.6592199999999	
873	14.533	0.0	1250.01138	7.654112177073829E-14	50.46960999999999	1327.55213	138.13982000000007	87.13708000000001	1341.47274	-108.1068499999999	18.896489999999986	1393.9564	114.74135000000008	49.047930000000015	1405.4483	-87.72944999999991	-62.731590000000004	1200.31185	39.74778000000006	-47.685489999999994	1205.99857	-61.487619999999936	-58.82197	1275.48313	-7.345339999999929	-14.3945	1366.17442	4.383510000000082	42.17648	1457.39883	17.474810000000094	98.98441	1537.60523	29.796030000000105	333.08757	1553.8953	64.62716000000015	234.87324	1652.93895	55.03083000000013	166.51417	1607.32674	43.00579000000012	242.39629	1487.66875	48.39633000000012	276.99049	1680.42474	61.60610000000013	518.97212	1747.65832	69.48457000000018	433.25672	1710.81313	136.89585000000017	437.04786	1697.78108	5.805190000000157	411.33916	1749.96855	66.16732000000017	238.24972999999997	1636.29345	234.51782000000014	307.2604	1622.60979	-110.59478999999986	299.44116999999994	1422.03456	318.8115500000002	280.95933999999994	1394.78571	276.1019400000002	409.02894	1405.03365	-117.52547999999986	369.87352	1379.91731	-90.27662999999987	401.74282999999997	1262.27337	401.86130000000014	433.78984999999994	1268.25627	372.3022200000001	273.08086999999995	1409.47639	312.2362800000002	557.59441	1265.59062	-125.64088999999986	566.00601	1272.58054	-83.04975999999986	384.14955	1392.77166	-126.11478999999987	567.30921	1214.76559	447.1180900000001	487.51746999999995	1225.90207	453.21946000000014	436.81091999999995	1241.9552	410.9245100000001	715.22308	1240.29658	-39.984729999999836	663.09485	1246.27948	-101.41310999999985	595.68356	1251.37383	-108.22531999999985	-14.276030000000018	1227.91612	147.97310000000007	244.52880999999996	1012.41326	226.34317000000007	270.65217	1012.82791	164.3816500000001	278.11598	1043.57172	201.7599600000001	26.064120000000017	1238.57871	-146.9068399999999	311.11078	1043.80867	-166.8695899999999	322.66193	1044.69722	-100.64303999999989	335.99017	1076.685	-135.23722999999993	281.31476	965.14243	202.88546000000008	44.664419999999986	676.95622	130.02440000000004	68.89219999999999	677.31164	74.93434000000006	363.94986	1018.33692	-149.5132599999999	311.70315	642.36202	-165.50714999999994	333.79841	641.71042	-109.58776999999992	-37.792970000000004	590.88539	32.40244000000003	115.57066999999999	489.11686	62.376170000000045	69.54379999999999	478.92816	136.95509000000004	111.18715999999999	469.39106	107.75143000000004	-7.700760000000006	563.63654	47.27083000000003	165.98103999999998	428.75473	136.00730000000004	266.62408	513.93701	-95.07478999999994	444.51168	515.77334	-39.333119999999916	449.54679	485.85885	-122.14592999999992	471.81976	499.42403	-77.48150999999991	309.27445	508.78342	-90.63204999999994	545.33242	497.46923	-72.3871599999999	
874	14.55	0.0	1250.01138	7.654112177073829E-14	47.330069999999985	1329.09229	138.37677000000008	88.97342000000002	1340.82114	-107.1590699999999	15.934649999999985	1395.14113	113.73433000000009	50.17343000000002	1404.7967	-88.20333999999991	-63.32396000000001	1200.37109	38.91847000000006	-46.20456999999999	1205.22849	-62.020749999999936	-58.76274	1275.12771	-8.76701999999993	-15.0461	1366.17442	3.198780000000082	40.99175	1457.69501	16.823200000000092	97.32578	1538.13836	29.855260000000108	331.07353	1555.1985	66.81892000000015	232.50378	1653.94597	56.86717000000013	164.44089	1608.09682	44.01282000000012	240.73767	1488.67577	49.403350000000124	274.50255	1681.55024	63.97556000000014	516.12876	1749.7316	72.09098000000017	430.70954	1712.47176	139.67998000000017	434.26374	1699.55817	8.530070000000158	408.49581	1751.62717	68.95144000000018	234.04392999999996	1638.07055	236.05797000000015	305.72025	1624.44613	-108.69921999999985	297.48635999999993	1423.45624	318.8115500000002	279.71536999999995	1396.3851	275.68728000000016	408.55504	1406.86998	-117.05157999999986	369.39963	1381.33899	-90.15814999999988	401.26893999999993	1264.22817	401.0319900000001	433.1974799999999	1270.44802	371.4136800000001	271.4814799999999	1410.83884	312.1178100000002	557.23899	1267.60466	-126.35172999999986	565.76906	1274.35764	-83.76059999999985	383.61642	1394.54876	-125.75936999999988	566.83532	1216.48345	445.7556500000001	487.10281999999995	1227.73841	452.0939700000001	436.33701999999994	1243.96925	409.9767200000001	714.98613	1242.07367	-40.814039999999835	662.73943	1248.17505	-102.18318999999984	595.38738	1253.2694	-108.99539999999986	-15.579230000000019	1230.40406	148.1508100000001	257.56086999999997	1037.23341	235.58408000000009	284.39506	1037.88501	173.9779800000001	289.01552	1070.10974	210.58622000000008	24.938620000000018	1234.90604	-146.4921899999999	292.09583	1016.38211	-166.7511199999999	305.24636	1018.04074	-100.8799799999999	320.41094	1047.896	-136.59966999999992	293.10285	989.42944	211.8894300000001	49.69952999999999	707.93697	135.47417000000004	74.04578999999998	708.23316	80.44334000000006	346.88971	991.26578	-150.69798999999992	298.96728	614.58004	-163.13767999999993	321.77338	614.63928	-107.45524999999992	-32.165490000000005	620.79989	38.26686000000003	121.90898999999999	520.27533	68.89220000000005	75.88211999999999	510.14586	143.47112000000004	117.64394999999999	500.78648	114.38593000000004	-1.8363400000000065	593.84722	53.312970000000035	172.55630999999997	460.86099	142.81952000000007	251.22255	488.22831	-92.64608999999994	429.11015	486.03656	-36.66746999999992	433.49366	455.76664	-119.42104999999991	456.06282	468.91717	-74.69738999999991	293.81369	482.0677	-88.14410999999993	529.33853	465.30373	-69.4845699999999	
